<svg width="128" height="128" viewBox="0 0 128 128" fill="none" xmlns="http://www.w3.org/2000/svg">
<g clip-path="url(#clip0_23_358)">
<mask id="path-1-inside-1_23_358" fill="white">
<path d="M63.9999 7.52941C67.6163 7.52941 71.2478 7.87727 74.7926 8.56395C78.3691 9.25666 81.8891 10.2995 85.254 11.6638C92.2541 14.5024 98.5381 18.6767 103.931 24.0693C109.323 29.4626 113.498 35.7459 116.336 42.746C117.7 46.1109 118.744 49.6309 119.436 53.2073C120.122 56.7522 120.471 60.3829 120.471 64C120.471 67.6171 120.123 71.2478 119.436 74.7927C118.743 78.3691 117.7 81.8891 116.336 85.254C113.498 92.2541 109.323 98.5382 103.931 103.931C98.5374 109.323 92.2541 113.498 85.254 116.336C81.8891 117.701 78.3691 118.744 74.7926 119.436C71.2478 120.123 67.6171 120.471 63.9999 120.471C60.3828 120.471 56.7521 120.123 53.2073 119.436C49.6308 118.743 46.1108 117.701 42.7459 116.336C35.7458 113.498 29.4618 109.323 24.0692 103.931C18.6767 98.5374 14.5023 92.2541 11.6638 85.254C10.2994 81.8891 9.25585 78.3691 8.5639 74.7927C7.87722 71.2478 7.52936 67.6171 7.52936 64C7.52936 60.3829 7.87722 56.7522 8.5639 53.2073C9.2566 49.6309 10.2994 46.1109 11.6638 42.746C14.5023 35.7459 18.6767 29.4618 24.0692 24.0693C29.4625 18.6767 35.7458 14.5024 42.7459 11.6638C46.1108 10.2995 49.6308 9.25591 53.2073 8.56395C56.7521 7.87727 60.3828 7.52941 63.9999 7.52941M63.9999 0C47.6212 0 31.2417 6.24866 18.7452 18.7452C-6.24872 43.7391 -6.24872 84.2616 18.7452 109.255C31.2417 121.751 47.6212 128 63.9999 128C80.3787 128 96.7582 121.751 109.255 109.255C134.249 84.2609 134.249 43.7384 109.255 18.7452C96.7582 6.24866 80.3787 0 63.9999 0V0Z"/>
</mask>
<path d="M74.7926 8.56395L74.6024 9.5457L74.6025 9.54571L74.7926 8.56395ZM85.254 11.6638L85.6298 10.7371L85.6297 10.7371L85.254 11.6638ZM103.931 24.0693L104.638 23.3622L104.638 23.3622L103.931 24.0693ZM116.336 42.746L117.263 42.3702L117.263 42.3702L116.336 42.746ZM119.436 53.2073L118.454 53.3973L118.454 53.3973L119.436 53.2073ZM119.436 74.7927L118.454 74.6025L118.454 74.6025L119.436 74.7927ZM116.336 85.254L117.263 85.6298L117.263 85.6298L116.336 85.254ZM103.931 103.931L104.638 104.638L104.638 104.638L103.931 103.931ZM85.254 116.336L85.6297 117.263L85.6298 117.263L85.254 116.336ZM74.7926 119.436L74.6027 118.454L74.6024 118.454L74.7926 119.436ZM53.2073 119.436L53.3975 118.454L53.3974 118.454L53.2073 119.436ZM42.7459 116.336L42.3701 117.263L42.3702 117.263L42.7459 116.336ZM24.0692 103.931L23.3621 104.638L23.3621 104.638L24.0692 103.931ZM11.6638 85.254L10.737 85.6298L10.7371 85.6298L11.6638 85.254ZM8.5639 74.7927L9.54569 74.6027L9.54565 74.6025L8.5639 74.7927ZM8.5639 53.2073L9.54565 53.3975L9.54565 53.3975L8.5639 53.2073ZM11.6638 42.746L10.7371 42.3702L10.737 42.3702L11.6638 42.746ZM24.0692 24.0693L23.3622 23.3621L23.3621 23.3622L24.0692 24.0693ZM42.7459 11.6638L42.3702 10.7371L42.3701 10.7371L42.7459 11.6638ZM53.2073 8.56395L53.3972 9.54575L53.3975 9.5457L53.2073 8.56395ZM63.9999 0V1L64.9999 1V0H63.9999ZM18.7452 109.255L19.4523 108.548L19.4523 108.548L18.7452 109.255ZM109.255 18.7452L108.548 19.4523L108.548 19.4523L109.255 18.7452ZM63.9999 0V-1H62.9999V0H63.9999ZM63.9999 8.52941C67.5527 8.52941 71.1204 8.87119 74.6024 9.5457L74.9828 7.5822C71.3751 6.88335 67.68 6.52941 63.9999 6.52941V8.52941ZM74.6025 9.54571C78.1157 10.2262 81.5735 11.2506 84.8782 12.5905L85.6297 10.7371C82.2046 9.34836 78.6225 8.28715 74.9828 7.5822L74.6025 9.54571ZM84.8782 12.5905C91.753 15.3783 97.9247 19.4775 103.224 24.7764L104.638 23.3622C99.1515 17.8759 92.7551 13.6265 85.6298 10.7371L84.8782 12.5905ZM103.224 24.7763C108.522 30.076 112.622 36.247 115.409 43.1218L117.263 42.3702C114.373 35.2448 110.124 28.8491 104.638 23.3622L103.224 24.7763ZM115.409 43.1217C116.749 46.4265 117.775 49.8843 118.454 53.3973L120.418 53.0174C119.714 49.3774 118.652 45.7952 117.263 42.3702L115.409 43.1217ZM118.454 53.3973C119.128 56.8796 119.471 60.4467 119.471 64H121.471C121.471 60.3191 121.116 56.6248 120.418 53.0174L118.454 53.3973ZM119.471 64C119.471 67.5535 119.129 71.1205 118.454 74.6025L120.418 74.9828C121.117 71.3752 121.471 67.6808 121.471 64H119.471ZM118.454 74.6025C117.774 78.1157 116.749 81.5736 115.409 84.8783L117.263 85.6298C118.652 82.2047 119.713 78.6225 120.418 74.9828L118.454 74.6025ZM115.409 84.8782C112.622 91.7531 108.522 97.9247 103.224 103.224L104.638 104.638C110.124 99.1516 114.373 92.7552 117.263 85.6298L115.409 84.8782ZM103.224 103.224C97.9239 108.523 91.753 112.622 84.8782 115.409L85.6298 117.263C92.7552 114.373 99.1508 110.124 104.638 104.638L103.224 103.224ZM84.8782 115.409C81.5734 116.749 78.1156 117.775 74.6027 118.454L74.9826 120.418C78.6225 119.714 82.2048 118.652 85.6297 117.263L84.8782 115.409ZM74.6024 118.454C71.1204 119.129 67.5534 119.471 63.9999 119.471V121.471C67.6807 121.471 71.3751 121.117 74.9828 120.418L74.6024 118.454ZM63.9999 119.471C60.4465 119.471 56.8795 119.129 53.3975 118.454L53.0171 120.418C56.6248 121.117 60.3191 121.471 63.9999 121.471V119.471ZM53.3974 118.454C49.8842 117.774 46.4264 116.749 43.1217 115.409L42.3702 117.263C45.7953 118.652 49.3774 119.713 53.0171 120.418L53.3974 118.454ZM43.1217 115.409C36.2469 112.622 30.0752 108.523 24.7763 103.224L23.3621 104.638C28.8483 110.124 35.2448 114.374 42.3701 117.263L43.1217 115.409ZM24.7764 103.224C19.4774 97.924 15.3782 91.753 12.5905 84.8782L10.7371 85.6298C13.6265 92.7552 17.8759 99.1508 23.3621 104.638L24.7764 103.224ZM12.5905 84.8783C11.2505 81.5734 10.2254 78.1157 9.54569 74.6027L7.5821 74.9826C8.28634 78.6226 9.34835 82.2048 10.737 85.6298L12.5905 84.8783ZM9.54565 74.6025C8.87113 71.1205 8.52936 67.5535 8.52936 64H6.52936C6.52936 67.6808 6.8833 71.3752 7.58215 74.9828L9.54565 74.6025ZM8.52936 64C8.52936 60.4465 8.87113 56.8795 9.54565 53.3975L7.58215 53.0172C6.8833 56.6248 6.52936 60.3192 6.52936 64H8.52936ZM9.54565 53.3975C10.2261 49.8843 11.2506 46.4264 12.5905 43.1217L10.737 42.3702C9.3483 45.7953 8.2871 49.3775 7.58214 53.0172L9.54565 53.3975ZM12.5905 43.1218C15.3783 36.2469 19.4774 30.0753 24.7763 24.7764L23.3621 23.3622C17.8759 28.8484 13.6264 35.2448 10.7371 42.3702L12.5905 43.1218ZM24.7763 24.7764C30.076 19.4775 36.2469 15.3783 43.1217 12.5905L42.3701 10.7371C35.2447 13.6265 28.8491 17.8759 23.3622 23.3621L24.7763 24.7764ZM43.1217 12.5905C46.4265 11.2506 49.8843 10.2254 53.3972 9.54575L53.0173 7.58216C49.3774 8.2864 45.7951 9.34841 42.3702 10.7371L43.1217 12.5905ZM53.3975 9.5457C56.8795 8.87119 60.4465 8.52941 63.9999 8.52941V6.52941C60.3191 6.52941 56.6248 6.88335 53.0171 7.5822L53.3975 9.5457ZM63.9999 -1C47.3668 -1 30.7297 5.34649 18.0381 18.0381L19.4523 19.4523C31.7538 7.15083 47.8756 1 63.9999 1V-1ZM18.0381 18.0381C-7.34634 43.4225 -7.34636 84.5782 18.0381 109.962L19.4523 108.548C-5.15107 83.9451 -5.15109 44.0557 19.4523 19.4523L18.0381 18.0381ZM18.0381 109.962C30.7297 122.654 47.3668 129 63.9999 129V127C47.8756 127 31.7538 120.849 19.4523 108.548L18.0381 109.962ZM63.9999 129C80.6331 129 97.2702 122.654 109.962 109.962L108.548 108.548C96.2461 120.849 80.1243 127 63.9999 127V129ZM109.962 109.962C135.346 84.5775 135.346 43.4218 109.962 18.0381L108.548 19.4523C133.151 44.0549 133.151 83.9443 108.548 108.548L109.962 109.962ZM109.962 18.0381C97.2702 5.34649 80.6331 -1 63.9999 -1V1C80.1243 1 96.2461 7.15083 108.548 19.4523L109.962 18.0381ZM62.9999 0V0H64.9999V0H62.9999Z" fill="#E1E1E1" mask="url(#path-1-inside-1_23_358)"/>
<mask id="path-3-inside-2_23_358" fill="white">
<path d="M28.7933 39.4413L58.676 69.324L88.5595 99.2075C85.4732 101.368 82.1256 103.102 78.5672 104.383C73.893 106.065 68.9921 106.918 64.0008 106.918C61.2518 106.918 58.4915 106.653 55.7975 106.132C53.0794 105.605 50.405 104.812 47.8472 103.776C42.5277 101.618 37.7525 98.4463 33.6535 94.3473C29.7623 90.4561 26.7001 85.9452 24.5535 80.9397C22.4784 76.1028 21.3219 70.9685 21.1163 65.6798C20.7496 56.25 23.4572 47.0731 28.7948 39.4413M28.4484 30.0499C27.3469 30.0499 26.2484 30.5152 25.4728 31.4308C8.67998 51.2512 9.63245 80.9736 28.3302 99.6713C38.1802 109.521 51.0924 114.447 64.0016 114.447C75.5976 114.447 87.1914 110.475 96.5708 102.529C98.3063 101.058 98.4253 98.4237 96.817 96.8147L64.0023 64L31.1854 31.1853C30.4249 30.4248 29.4348 30.0506 28.4469 30.0506L28.4484 30.0499Z"/>
</mask>
<path d="M58.676 69.324L57.9689 70.0311L57.9689 70.0311L58.676 69.324ZM88.5595 99.2075L89.1329 100.027L90.1095 99.3433L89.2666 98.5004L88.5595 99.2075ZM78.5672 104.383L78.9058 105.324L78.9059 105.324L78.5672 104.383ZM55.7975 106.132L55.9877 105.15L55.9876 105.15L55.7975 106.132ZM47.8472 103.776L47.4714 104.702L47.4715 104.702L47.8472 103.776ZM24.5535 80.9397L25.4725 80.5455L25.4725 80.5454L24.5535 80.9397ZM21.1163 65.6798L22.1156 65.641L22.1156 65.641L21.1163 65.6798ZM28.4484 30.0499L28.8951 30.9446L28.4484 29.0499V30.0499ZM25.4728 31.4308L26.2358 32.0772L26.2359 32.0771L25.4728 31.4308ZM96.5708 102.529L97.2172 103.292L97.2172 103.292L96.5708 102.529ZM96.817 96.8147L97.5243 96.1077L97.5241 96.1076L96.817 96.8147ZM64.0023 64L64.7094 63.2929L64.7094 63.2929L64.0023 64ZM31.1854 31.1853L30.4783 31.8924L30.4783 31.8924L31.1854 31.1853ZM28.4469 30.0506L28.0003 29.1559L28.4469 31.0506V30.0506ZM28.0862 40.1484L57.9689 70.0311L59.3831 68.6169L29.5004 38.7342L28.0862 40.1484ZM57.9689 70.0311L87.8524 99.9146L89.2666 98.5004L59.3831 68.6169L57.9689 70.0311ZM87.9861 98.3883C84.9724 100.498 81.7038 102.192 78.2286 103.442L78.9059 105.324C82.5474 104.013 85.974 102.238 89.1329 100.027L87.9861 98.3883ZM78.2286 103.442C73.6636 105.085 68.8773 105.918 64.0008 105.918V107.918C69.1069 107.918 74.1223 107.046 78.9058 105.324L78.2286 103.442ZM64.0008 105.918C61.3155 105.918 58.6189 105.659 55.9877 105.15L55.6074 107.113C58.3642 107.647 61.1882 107.918 64.0008 107.918V105.918ZM55.9876 105.15C53.3329 104.636 50.7206 103.861 48.2229 102.849L47.4715 104.702C50.0893 105.764 52.8259 106.575 55.6074 107.113L55.9876 105.15ZM48.223 102.849C43.0288 100.743 38.366 97.6455 34.3606 93.6402L32.9464 95.0544C37.1391 99.2471 42.0266 102.494 47.4714 104.702L48.223 102.849ZM34.3606 93.6402C30.5583 89.8379 27.5685 85.4329 25.4725 80.5455L23.6344 81.3338C25.8317 86.4575 28.9663 91.0743 32.9464 95.0544L34.3606 93.6402ZM25.4725 80.5454C23.4459 75.8217 22.3164 70.8079 22.1156 65.641L20.1171 65.7186C20.3273 71.129 21.5108 76.3838 23.6345 81.3339L25.4725 80.5454ZM22.1156 65.641C21.7573 56.4286 24.4022 47.4668 29.6143 40.0144L27.9753 38.8682C22.5122 46.6794 19.7419 56.0713 20.1171 65.7187L22.1156 65.641ZM28.4484 29.0499C27.0656 29.0499 25.6833 29.6351 24.7098 30.7844L26.2359 32.0771C26.8134 31.3953 27.6282 31.0499 28.4484 31.0499V29.0499ZM24.7098 30.7843C7.58344 50.9985 8.55436 81.3097 27.6231 100.378L29.0373 98.9642C10.7105 80.6374 9.77652 51.5039 26.2358 32.0772L24.7098 30.7843ZM27.6231 100.378C37.6682 110.423 50.838 115.447 64.0016 115.447V113.447C51.3468 113.447 38.6923 108.619 29.0373 98.9642L27.6231 100.378ZM64.0016 115.447C75.8257 115.447 87.6507 111.397 97.2172 103.292L95.9244 101.766C86.7321 109.554 75.3696 113.447 64.0016 113.447V115.447ZM97.2172 103.292C99.3953 101.446 99.5492 98.1336 97.5243 96.1077L96.1097 97.5216C97.3014 98.7138 97.2173 100.67 95.9243 101.766L97.2172 103.292ZM97.5241 96.1076L64.7094 63.2929L63.2952 64.7071L96.1099 97.5218L97.5241 96.1076ZM64.7094 63.2929L31.8925 30.4782L30.4783 31.8924L63.2952 64.7071L64.7094 63.2929ZM31.8925 30.4782C30.9362 29.522 29.6881 29.0506 28.4469 29.0506V31.0506C29.1815 31.0506 29.9136 31.3277 30.4783 31.8924L31.8925 30.4782ZM28.8936 30.9453L28.8951 30.9446L28.0018 29.1552L28.0003 29.1559L28.8936 30.9453Z" fill="#E1E1E1" mask="url(#path-3-inside-2_23_358)"/>
</g>
<defs>
<clipPath id="clip0_23_358">
<rect width="128" height="128" fill="white"/>
</clipPath>
</defs>
</svg>
